<svg width="1920" height="1080" viewBox="0 0 1920 1080" fill="none" xmlns="http://www.w3.org/2000/svg">
<g clip-path="url(#clip0_1_2)">
<path d="M100.126 568.421C-50.3648 570.259 -144.183 483.293 -219.374 352.92C-278.01 251.252 -282.276 173.778 -271.374 56.9205C-257.201 -95.0071 -231.777 -212.87 -103.874 -296.08C29.3558 -382.755 148.389 -332.405 303.126 -296.08C476.268 -255.433 711.124 -259.828 705.126 -82.0795C702.008 10.313 663.687 70.877 587.626 123.421C500.85 183.366 385.904 66.1977 318.626 147.421C246.709 234.244 416.63 330.388 367.626 431.921C316.648 537.542 217.397 566.988 100.126 568.421Z" fill="#FFD5A5"/>
<path d="M1928.11 347.029C2078.6 345.19 2172.42 432.156 2247.61 562.529C2306.25 664.197 2310.51 741.671 2299.61 858.529C2285.44 1010.46 2260.01 1128.32 2132.11 1211.53C1998.88 1298.2 1879.85 1247.85 1725.11 1211.53C1551.97 1170.88 1317.11 1175.28 1323.11 997.529C1326.23 905.136 1364.55 844.572 1440.61 792.029C1527.39 732.083 1642.33 849.252 1709.61 768.029C1781.53 681.206 1611.61 585.061 1660.61 483.529C1711.59 377.907 1810.84 348.461 1928.11 347.029Z" fill="#FFD5A5"/>
</g>
<defs>
<clipPath id="clip0_1_2">
<rect width="1920" height="1080" fill="white"/>
</clipPath>
</defs>
</svg>
