<svg width="1920" height="1631" viewBox="0 0 1920 1631" fill="none" xmlns="http://www.w3.org/2000/svg">
<g clip-path="url(#clip0_2_65)">
<path d="M1935.11 815.029C2085.6 813.19 2179.42 900.156 2254.61 1030.53C2313.25 1132.2 2317.51 1209.67 2306.61 1326.53C2292.44 1478.46 2267.01 1596.32 2139.11 1679.53C2005.88 1766.2 1886.85 1715.85 1732.11 1679.53C1558.97 1638.88 1324.11 1643.28 1330.11 1465.53C1333.23 1373.14 1371.55 1312.57 1447.61 1260.03C1534.39 1200.08 1649.33 1317.25 1716.61 1236.03C1788.53 1149.21 1618.61 1053.06 1667.61 951.529C1718.59 845.907 1817.84 816.461 1935.11 815.029Z" fill="#FFD5A5"/>
<path d="M-28.7626 815.421C-179.253 817.26 -273.072 730.294 -348.263 599.921C-406.899 498.253 -411.164 420.779 -400.263 303.921C-386.089 151.994 -360.665 34.1311 -232.763 -49.0786C-99.5324 -135.755 19.5006 -85.4041 174.237 -49.0786C347.38 -8.43233 582.235 -12.8268 576.237 164.921C573.12 257.314 534.798 317.878 458.737 370.421C371.961 430.367 257.016 313.198 189.737 394.421C117.82 481.244 287.741 577.389 238.737 678.921C187.76 784.543 88.5085 813.989 -28.7626 815.421Z" fill="#FFD5A5"/>
</g>
<defs>
<clipPath id="clip0_2_65">
<rect width="1920" height="1631" fill="white"/>
</clipPath>
</defs>
</svg>
