<svg width="16" height="16" viewBox="0 0 16 16" fill="none" xmlns="http://www.w3.org/2000/svg">
<path fill-rule="evenodd" clip-rule="evenodd" d="M1.87001 8.52331L1.64101 8.00831L1.87001 7.49331C2.39696 6.3075 3.25654 5.29997 4.34458 4.59284C5.43261 3.88572 6.70238 3.50935 8.00001 3.50935C9.29764 3.50935 10.5674 3.88572 11.6554 4.59284C12.7435 5.29997 13.6031 6.3075 14.13 7.49331L14.358 8.00831L14.129 8.52331C13.6019 9.70884 12.7424 10.7161 11.6544 11.423C10.5665 12.1299 9.29693 12.5062 7.99951 12.5062C6.70209 12.5062 5.43251 12.1299 4.34459 11.423C3.25667 10.7161 2.3971 9.70884 1.87001 8.52331ZM0.500012 6.88431L0.240012 7.46931C0.164504 7.63915 0.125488 7.82295 0.125488 8.00881C0.125488 8.19468 0.164504 8.37848 0.240012 8.54831L0.500012 9.13231C1.145 10.5829 2.19678 11.8153 3.52795 12.6802C4.85911 13.5451 6.41253 14.0055 8.00001 14.0055C9.58749 14.0055 11.1409 13.5451 12.4721 12.6802C13.8032 11.8153 14.855 10.5829 15.5 9.13231L15.76 8.54831C15.8357 8.37834 15.8748 8.19436 15.8748 8.00831C15.8748 7.82226 15.8357 7.63829 15.76 7.46831L15.5 6.88431C14.855 5.43376 13.8032 4.20137 12.4721 3.33645C11.1409 2.47152 9.58749 2.01117 8.00001 2.01117C6.41253 2.01117 4.85911 2.47152 3.52795 3.33645C2.19678 4.20137 1.145 5.43376 0.500012 6.88431ZM9.50001 8.00831C9.50001 8.40614 9.34198 8.78767 9.06067 9.06897C8.77937 9.35028 8.39784 9.50831 8.00001 9.50831C7.60219 9.50831 7.22066 9.35028 6.93935 9.06897C6.65805 8.78767 6.50001 8.40614 6.50001 8.00831C6.50001 7.61049 6.65805 7.22896 6.93935 6.94765C7.22066 6.66635 7.60219 6.50831 8.00001 6.50831C8.39784 6.50831 8.77937 6.66635 9.06067 6.94765C9.34198 7.22896 9.50001 7.61049 9.50001 8.00831ZM11 8.00831C11 8.80396 10.6839 9.56702 10.1213 10.1296C9.55872 10.6922 8.79566 11.0083 8.00001 11.0083C7.20436 11.0083 6.4413 10.6922 5.87869 10.1296C5.31608 9.56702 5.00001 8.80396 5.00001 8.00831C5.00001 7.21266 5.31608 6.4496 5.87869 5.88699C6.4413 5.32438 7.20436 5.00831 8.00001 5.00831C8.79566 5.00831 9.55872 5.32438 10.1213 5.88699C10.6839 6.4496 11 7.21266 11 8.00831Z" fill="black"/>
</svg>
