<svg width="60" height="60" viewBox="0 0 60 60" fill="none" xmlns="http://www.w3.org/2000/svg">
<g clip-path="url(#clip0_1_2)">
<path fill-rule="evenodd" clip-rule="evenodd" d="M40.3569 3.0083C40.3569 1.35145 39.0138 0.00830078 37.3569 0.00830078H23.3606C21.7038 0.00830078 20.3606 1.35145 20.3606 3.0083V4.685C20.3606 6.34185 19.0175 7.685 17.3606 7.685H11.3221C10.7921 7.685 10.3625 8.11462 10.3625 8.64459C10.3625 9.17455 10.7921 9.60418 11.3221 9.60418H49.3955C49.9254 9.60418 50.3551 9.17455 50.3551 8.64459C50.3551 8.11462 49.9254 7.685 49.3955 7.685L43.3569 7.68501C41.7001 7.68501 40.3569 6.34186 40.3569 4.68501V3.0083ZM28.3892 11.5705C28.3766 11.5712 28.3694 11.5564 28.3777 11.5469C28.3858 11.5378 28.3793 11.5234 28.3671 11.5234H3.00585C0.423645 11.5234 -0.952146 14.5688 0.754732 16.5064L6.07143 22.5418C6.92273 23.5082 7.04432 24.9025 6.50447 26.0717C5.13379 29.0405 4.37344 32.3192 4.37344 35.7658C4.37344 49.1546 15.8469 60.0083 30.0001 60.0083C44.1534 60.0083 55.6269 49.1546 55.6269 35.7658C55.6269 32.3192 54.8665 29.0405 53.4958 26.0717C52.956 24.9025 53.0776 23.5082 53.9289 22.5418L59.2455 16.5064C60.9524 14.5688 59.5766 11.5234 56.9944 11.5234H31.6332C31.621 11.5234 31.6145 11.5378 31.6226 11.5469C31.6309 11.5564 31.6237 11.5712 31.6111 11.5705C31.0783 11.5392 30.5412 11.5234 30.0001 11.5234C29.4591 11.5234 28.9219 11.5392 28.3892 11.5705ZM47.6185 31.9779C47.6185 34.0699 45.8258 35.7658 43.6143 35.7658C41.4029 35.7658 39.6102 34.0699 39.6102 31.9779C39.6102 29.886 41.4029 28.1901 43.6143 28.1901C45.8258 28.1901 47.6185 29.886 47.6185 31.9779ZM16.386 35.7658C18.5974 35.7658 20.3901 34.0699 20.3901 31.9779C20.3901 29.886 18.5974 28.1901 16.386 28.1901C14.1745 28.1901 12.3818 29.886 12.3818 31.9779C12.3818 34.0699 14.1745 35.7658 16.386 35.7658ZM33.2035 40.3113C33.2035 41.5558 32.4104 42.6251 31.2763 43.0916C31.0572 43.1817 30.9422 43.4396 31.061 43.6446C31.2926 44.0443 31.6254 44.5738 32.0329 45.1014C32.4431 45.6327 32.9112 46.1386 33.4083 46.5105C33.9082 46.8844 34.3856 47.0844 34.8292 47.0979C35.2133 47.1096 35.6608 46.9854 36.151 46.7379C36.636 46.4929 37.1155 46.1512 37.5475 45.7912C37.9772 45.4331 38.3437 45.0707 38.6034 44.7968C38.7327 44.6604 38.8342 44.5472 38.9024 44.4694C38.9365 44.4305 38.9622 44.4005 38.9788 44.3809L38.9968 44.3596L39.0005 44.3551C39.0004 44.3552 39.0006 44.355 39.6102 44.8567C40.2197 45.3585 40.2196 45.3586 40.2195 45.3588L40.2184 45.3601L40.2161 45.3629L40.2087 45.3717L40.1831 45.4021C40.1612 45.4279 40.1299 45.4644 40.0899 45.5101C40.0098 45.6015 39.8944 45.73 39.7493 45.883C39.4602 46.188 39.0481 46.5961 38.5583 47.0042C38.0709 47.4104 37.49 47.8305 36.8628 48.1473C36.2407 48.4615 35.5241 48.6988 34.7811 48.6762C33.8985 48.6492 33.1122 48.2608 32.4625 47.7749C31.8101 47.2868 31.2426 46.6615 30.7832 46.0665C30.3946 45.5634 29.6056 45.5634 29.2171 46.0665C28.7576 46.6615 28.1902 47.2868 27.5377 47.7749C26.8881 48.2608 26.1018 48.6492 25.2192 48.6762C24.4762 48.6988 23.7596 48.4615 23.1375 48.1473C22.5103 47.8305 21.9294 47.4104 21.442 47.0042C20.9522 46.5961 20.5401 46.188 20.2509 45.883C20.1059 45.73 19.9905 45.6015 19.9104 45.5101C19.8704 45.4644 19.8391 45.4279 19.8172 45.4021L19.7916 45.3717L19.7842 45.3629L19.7819 45.3601L19.7811 45.3591C19.781 45.3589 19.7806 45.3585 20.3901 44.8567C20.9997 44.355 20.9996 44.3549 20.9995 44.3548L21.0035 44.3596L21.0215 44.3809C21.0381 44.4005 21.0638 44.4305 21.0979 44.4694C21.1661 44.5472 21.2676 44.6604 21.3969 44.7968C21.6565 45.0707 22.0231 45.4331 22.4527 45.7912C22.8848 46.1512 23.3643 46.4929 23.8493 46.7379C24.3395 46.9854 24.787 47.1096 25.1711 47.0979C25.6147 47.0844 26.0921 46.8844 26.592 46.5105C27.0891 46.1386 27.5572 45.6327 27.9674 45.1014C28.3749 44.5738 28.7077 44.0443 28.9393 43.6446C29.0581 43.4396 28.9431 43.1817 28.724 43.0916C27.5899 42.6251 26.7968 41.5558 26.7968 40.3113C26.7968 38.6377 28.231 37.281 30.0001 37.281C31.7693 37.281 33.2035 38.6377 33.2035 40.3113Z" fill="#392A2A"/>
</g>
<defs>
<clipPath id="clip0_1_2">
<rect width="60" height="60" fill="white"/>
</clipPath>
</defs>
</svg>
