<svg width="24" height="22" viewBox="0 0 24 22" fill="none" xmlns="http://www.w3.org/2000/svg">
<path d="M20.71 6.45331C20.37 6.76497 20.04 7.06747 20.03 7.36997C20 7.66331 20.34 7.96581 20.66 8.24997C21.14 8.7083 21.61 9.1208 21.59 9.56997C21.57 10.0191 21.06 10.4866 20.55 10.945L16.42 14.74L15 13.4383L19.25 9.55164L18.29 8.67164L16.87 9.96414L13.12 6.52664L16.96 3.01581C17.35 2.65831 18 2.65831 18.37 3.01581L20.71 5.16081C21.1 5.49997 21.1 6.09581 20.71 6.45331ZM3 15.8125L12.56 7.03997L16.31 10.4775L6.75 19.25H3V15.8125Z" fill="#392A2A"/>
</svg>
