<svg width="60" height="60" viewBox="0 0 60 60" fill="none" xmlns="http://www.w3.org/2000/svg">
<circle cx="30" cy="30" r="30" fill="#392A2A"/>
<path d="M30.5105 27.5C32.193 27.5 33.8378 26.9868 35.2367 26.0254C36.6357 25.0639 37.726 23.6973 38.3699 22.0985C39.0138 20.4996 39.1823 18.7403 38.854 17.043C38.5258 15.3456 37.7156 13.7865 36.5258 12.5628C35.3361 11.3391 33.8203 10.5058 32.1701 10.1681C30.52 9.83051 28.8095 10.0038 27.2551 10.6661C25.7006 11.3283 24.372 12.4498 23.4373 13.8888C22.5025 15.3277 22.0036 17.0194 22.0036 18.75C22.0036 21.0706 22.8998 23.2962 24.4952 24.9372C26.0906 26.5781 28.2543 27.5 30.5105 27.5ZM30.5105 30C25.2377 30 14.7119 33.35 14.7119 40V45H46.3091V40C46.3091 33.35 35.7833 30 30.5105 30Z" fill="white"/>
</svg>
