<svg width="60" height="60" viewBox="0 0 60 60" fill="none" xmlns="http://www.w3.org/2000/svg">
<path fill-rule="evenodd" clip-rule="evenodd" d="M40.3569 3C40.3569 1.34315 39.0138 0 37.3569 0H23.3606C21.7038 0 20.3606 1.34315 20.3606 3V4.6767C20.3606 6.33355 19.0175 7.6767 17.3606 7.6767H11.3221C10.7921 7.6767 10.3625 8.10632 10.3625 8.63629C10.3625 9.16625 10.7921 9.59587 11.3221 9.59587H49.3955C49.9254 9.59587 50.3551 9.16625 50.3551 8.63629C50.3551 8.10632 49.9254 7.6767 49.3955 7.6767L43.3569 7.67671C41.7001 7.67671 40.3569 6.33356 40.3569 4.67671V3ZM28.3892 11.5622C28.3766 11.5629 28.3694 11.5481 28.3777 11.5386C28.3858 11.5295 28.3793 11.5151 28.3671 11.5151H3.00585C0.423645 11.5151 -0.952146 14.5605 0.754732 16.4981L6.07143 22.5335C6.92273 23.4999 7.04432 24.8942 6.50447 26.0634C5.13379 29.0322 4.37344 32.3109 4.37344 35.7575C4.37344 49.1463 15.8469 60 30.0001 60C44.1534 60 55.6269 49.1463 55.6269 35.7575C55.6269 32.3109 54.8665 29.0322 53.4958 26.0634C52.956 24.8942 53.0776 23.4999 53.9289 22.5335L59.2455 16.4981C60.9524 14.5605 59.5766 11.5151 56.9944 11.5151H31.6332C31.621 11.5151 31.6145 11.5295 31.6226 11.5386C31.6309 11.5481 31.6237 11.5629 31.6111 11.5622C31.0783 11.5309 30.5412 11.5151 30.0001 11.5151C29.4591 11.5151 28.9219 11.5309 28.3892 11.5622ZM47.6185 31.9696C47.6185 34.0616 45.8258 35.7575 43.6143 35.7575C41.4029 35.7575 39.6102 34.0616 39.6102 31.9696C39.6102 29.8777 41.4029 28.1818 43.6143 28.1818C45.8258 28.1818 47.6185 29.8777 47.6185 31.9696ZM16.386 35.7575C18.5974 35.7575 20.3901 34.0616 20.3901 31.9696C20.3901 29.8777 18.5974 28.1818 16.386 28.1818C14.1745 28.1818 12.3818 29.8777 12.3818 31.9696C12.3818 34.0616 14.1745 35.7575 16.386 35.7575ZM33.2035 40.303C33.2035 41.5475 32.4104 42.6168 31.2763 43.0833C31.0572 43.1734 30.9422 43.4313 31.061 43.6363C31.2926 44.036 31.6254 44.5655 32.0329 45.0931C32.4431 45.6244 32.9112 46.1303 33.4083 46.5022C33.9082 46.8761 34.3856 47.0761 34.8292 47.0896C35.2133 47.1013 35.6608 46.9771 36.151 46.7296C36.636 46.4846 37.1155 46.1429 37.5475 45.7829C37.9772 45.4248 38.3437 45.0624 38.6034 44.7885C38.7327 44.6521 38.8342 44.5389 38.9024 44.4611C38.9365 44.4222 38.9622 44.3922 38.9788 44.3726L38.9968 44.3513L39.0005 44.3468L39.0008 44.3465C39.0007 44.3466 39.0006 44.3467 39.6102 44.8484C40.2197 45.3502 40.2196 45.3503 40.2195 45.3505L40.2191 45.3508L40.2184 45.3518L40.2161 45.3546L40.2087 45.3634L40.1831 45.3938C40.1612 45.4196 40.1299 45.4561 40.0899 45.5018C40.0098 45.5932 39.8944 45.7217 39.7493 45.8747C39.4602 46.1797 39.0481 46.5878 38.5583 46.9959C38.0709 47.4021 37.49 47.8222 36.8628 48.139C36.2407 48.4532 35.5241 48.6905 34.7811 48.6679C33.8985 48.6409 33.1122 48.2525 32.4625 47.7666C31.8101 47.2785 31.2426 46.6532 30.7832 46.0582C30.3946 45.5551 29.6056 45.5551 29.2171 46.0582C28.7576 46.6532 28.1902 47.2785 27.5377 47.7666C26.8881 48.2525 26.1018 48.6409 25.2192 48.6679C24.4762 48.6905 23.7596 48.4532 23.1375 48.139C22.5103 47.8222 21.9294 47.4021 21.442 46.9959C20.9522 46.5878 20.5401 46.1797 20.2509 45.8747C20.1059 45.7217 19.9905 45.5932 19.9104 45.5018C19.8704 45.4561 19.8391 45.4196 19.8172 45.3938L19.7916 45.3634L19.7842 45.3546L19.7819 45.3518L19.7811 45.3508L19.7808 45.3505C19.7807 45.3503 19.7806 45.3502 20.3901 44.8484C20.9997 44.3467 20.9996 44.3466 20.9995 44.3465L20.9998 44.3468L21.0035 44.3513L21.0215 44.3726C21.0381 44.3922 21.0638 44.4222 21.0979 44.4611C21.1661 44.5389 21.2676 44.6521 21.3969 44.7885C21.6565 45.0624 22.0231 45.4248 22.4527 45.7829C22.8848 46.1429 23.3643 46.4846 23.8493 46.7296C24.3395 46.9771 24.787 47.1013 25.1711 47.0896C25.6147 47.0761 26.0921 46.8761 26.592 46.5022C27.0891 46.1303 27.5572 45.6244 27.9674 45.0931C28.3749 44.5655 28.7077 44.036 28.9393 43.6363C29.0581 43.4313 28.9431 43.1734 28.724 43.0833C27.5899 42.6168 26.7968 41.5475 26.7968 40.303C26.7968 38.6294 28.231 37.2727 30.0001 37.2727C31.7693 37.2727 33.2035 38.6294 33.2035 40.303Z" fill="#392A2A"/>
</svg>
