<svg width="19" height="120" viewBox="0 0 19 120" fill="none" xmlns="http://www.w3.org/2000/svg">
<path fill-rule="evenodd" clip-rule="evenodd" d="M9.46239 120C10.1765 120 10.7554 119.421 10.7554 118.707V12.9091C10.7554 11.8045 11.6509 10.9091 12.7554 10.9091H16.9205C18.785 10.9091 19.6353 8.58279 18.2101 7.38046L15.9276 5.45454L10.7519 1.08808L9.46239 0L8.18835 1.07489C8.18306 1.07925 8.1778 1.08365 8.17255 1.08808L2.99722 5.45454L0.714316 7.38046C-0.710797 8.58279 0.139436 10.9091 2.00399 10.9091H6.16936C7.27393 10.9091 8.16936 11.8045 8.16936 12.9091V118.707C8.16936 119.421 8.74827 120 9.46239 120Z" fill="#392A2A"/>
</svg>
