<svg width="19" height="120" viewBox="0 0 19 120" fill="none" xmlns="http://www.w3.org/2000/svg">
<path fill-rule="evenodd" clip-rule="evenodd" d="M9.46239 0C10.1765 0 10.7554 0.578911 10.7554 1.29303V107.091C10.7554 108.195 11.6509 109.091 12.7554 109.091H16.9205C18.785 109.091 19.6353 111.417 18.2101 112.62L15.9276 114.545L10.7519 118.912L9.46239 120L8.18835 118.925C8.18306 118.921 8.1778 118.916 8.17255 118.912L2.99722 114.545L0.714316 112.62C-0.710797 111.417 0.139436 109.091 2.00399 109.091H6.16936C7.27393 109.091 8.16936 108.195 8.16936 107.091V1.29304C8.16936 0.578917 8.74827 0 9.46239 0Z" fill="#392A2A"/>
</svg>
