<svg width="53" height="52" viewBox="0 0 53 52" fill="none" xmlns="http://www.w3.org/2000/svg">
<circle cx="26.5" cy="26" r="26" fill="#F9F1E9"/>
<g clip-path="url(#clip0_2_268)">
<path fill-rule="evenodd" clip-rule="evenodd" d="M14.4396 26.3468C14.4398 24.123 15.0884 21.9465 16.3076 20.0785C17.5268 18.2104 19.2648 16.7302 21.3131 15.8154C23.3613 14.9006 25.6328 14.59 27.855 14.921C30.0771 15.2521 32.1556 16.2106 33.8409 17.6816C35.5262 19.1525 36.7469 21.0735 37.3563 23.2139C37.9658 25.3544 37.9381 27.6234 37.2768 29.7487C36.6154 31.874 35.3484 33.7653 33.6278 35.1957C31.9071 36.6261 29.806 37.5348 27.5764 37.8128V29.2357H30.4957C30.8828 29.2357 31.2541 29.0835 31.5278 28.8126C31.8016 28.5417 31.9554 28.1743 31.9554 27.7912C31.9554 27.4081 31.8016 27.0407 31.5278 26.7699C31.2541 26.499 30.8828 26.3468 30.4957 26.3468H27.5764V23.4579C27.5764 23.0748 27.7302 22.7074 28.0039 22.4365C28.2777 22.1656 28.6489 22.0135 29.0361 22.0135H29.7659C30.153 22.0135 30.5243 21.8613 30.798 21.5904C31.0717 21.3195 31.2255 20.9521 31.2255 20.569C31.2255 20.1859 31.0717 19.8185 30.798 19.5476C30.5243 19.2767 30.153 19.1246 29.7659 19.1246H29.0361C27.8747 19.1246 26.7609 19.5811 25.9397 20.3938C25.1185 21.2064 24.6571 22.3086 24.6571 23.4579V26.3468H21.7378C21.3507 26.3468 20.9794 26.499 20.7057 26.7699C20.4319 27.0407 20.2782 27.4081 20.2782 27.7912C20.2782 28.1743 20.4319 28.5417 20.7057 28.8126C20.9794 29.0835 21.3507 29.2357 21.7378 29.2357H24.6571V37.8128C21.8352 37.4606 19.2401 36.1015 17.3589 33.9904C15.4776 31.8793 14.4396 29.1614 14.4396 26.3468ZM26.1168 40.7912C34.1784 40.7912 40.7132 34.3245 40.7132 26.3468C40.7132 18.3691 34.1784 11.9023 26.1168 11.9023C18.0551 11.9023 11.5203 18.3691 11.5203 26.3468C11.5203 34.3245 18.0551 40.7912 26.1168 40.7912Z" fill="#392A2A"/>
</g>
<defs>
<clipPath id="clip0_2_268">
<rect width="35.0316" height="34.6667" fill="white" transform="translate(8.60107 9.01343)"/>
</clipPath>
</defs>
</svg>
