<svg width="53" height="52" viewBox="0 0 53 52" fill="none" xmlns="http://www.w3.org/2000/svg">
<circle cx="26.5" cy="26" r="26" fill="#F9F1E9"/>
<path d="M20.2929 11.9023H32.5539C37.2248 11.9023 41.0199 15.6579 41.0199 20.2801V32.4135C41.0199 34.6354 40.1279 36.7663 38.5403 38.3374C36.9526 39.9086 34.7992 40.7912 32.5539 40.7912H20.2929C15.622 40.7912 11.8269 37.0357 11.8269 32.4135V20.2801C11.8269 18.0582 12.7189 15.9273 14.3065 14.3561C15.8942 12.785 18.0476 11.9023 20.2929 11.9023ZM20.0009 14.7912C18.6073 14.7912 17.2707 15.3391 16.2853 16.3143C15.2998 17.2895 14.7462 18.6121 14.7462 19.9912V32.7023C14.7462 35.5768 17.0962 37.9023 20.0009 37.9023H32.8458C34.2395 37.9023 35.5761 37.3545 36.5615 36.3793C37.547 35.4041 38.1006 34.0815 38.1006 32.7023V19.9912C38.1006 17.1168 35.7506 14.7912 32.8458 14.7912H20.0009ZM34.0866 16.9579C34.5705 16.9579 35.0345 17.1481 35.3767 17.4867C35.7189 17.8253 35.9111 18.2846 35.9111 18.7635C35.9111 19.2423 35.7189 19.7016 35.3767 20.0402C35.0345 20.3788 34.5705 20.569 34.0866 20.569C33.6026 20.569 33.1386 20.3788 32.7964 20.0402C32.4542 19.7016 32.262 19.2423 32.262 18.7635C32.262 18.2846 32.4542 17.8253 32.7964 17.4867C33.1386 17.1481 33.6026 16.9579 34.0866 16.9579ZM26.4234 19.1246C28.359 19.1246 30.2153 19.8855 31.584 21.2399C32.9527 22.5943 33.7216 24.4313 33.7216 26.3468C33.7216 28.2622 32.9527 30.0992 31.584 31.4537C30.2153 32.8081 28.359 33.569 26.4234 33.569C24.4878 33.569 22.6314 32.8081 21.2628 31.4537C19.8941 30.0992 19.1251 28.2622 19.1251 26.3468C19.1251 24.4313 19.8941 22.5943 21.2628 21.2399C22.6314 19.8855 24.4878 19.1246 26.4234 19.1246ZM26.4234 22.0135C25.262 22.0135 24.1482 22.47 23.327 23.2827C22.5058 24.0953 22.0444 25.1975 22.0444 26.3468C22.0444 27.4961 22.5058 28.5983 23.327 29.4109C24.1482 30.2236 25.262 30.6801 26.4234 30.6801C27.5848 30.6801 28.6986 30.2236 29.5198 29.4109C30.341 28.5983 30.8023 27.4961 30.8023 26.3468C30.8023 25.1975 30.341 24.0953 29.5198 23.2827C28.6986 22.47 27.5848 22.0135 26.4234 22.0135Z" fill="#392A2A"/>
</svg>
