<svg width="36" height="38" viewBox="0 0 36 38" fill="none" xmlns="http://www.w3.org/2000/svg">
<path d="M29.0833 3.74996L30.0999 10.1833L35.9499 13.1666L32.9999 19L35.9666 24.8333L30.0666 27.8166L29.0499 34.25L22.5666 33.2333L17.9499 37.8333L13.3166 33.1666L6.88326 34.2333L5.84993 27.75L0.0332642 24.7833L2.99993 18.95L0.0499308 13.1666L5.89993 10.15L6.9166 3.76663L13.3666 4.8333L17.9999 0.149963L22.6166 4.76663L29.0833 3.74996ZM13.8333 10.6666C13.1702 10.6666 12.5343 10.93 12.0655 11.3989C11.5967 11.8677 11.3333 12.5036 11.3333 13.1666C11.3333 13.8297 11.5967 14.4656 12.0655 14.9344C12.5343 15.4032 13.1702 15.6666 13.8333 15.6666C14.4963 15.6666 15.1322 15.4032 15.601 14.9344C16.0699 14.4656 16.3333 13.8297 16.3333 13.1666C16.3333 12.5036 16.0699 11.8677 15.601 11.3989C15.1322 10.93 14.4963 10.6666 13.8333 10.6666ZM22.1666 22.3333C21.5036 22.3333 20.8677 22.5967 20.3988 23.0655C19.93 23.5344 19.6666 24.1703 19.6666 24.8333C19.6666 25.4963 19.93 26.1322 20.3988 26.6011C20.8677 27.0699 21.5036 27.3333 22.1666 27.3333C22.8296 27.3333 23.4655 27.0699 23.9344 26.6011C24.4032 26.1322 24.6666 25.4963 24.6666 24.8333C24.6666 24.1703 24.4032 23.5344 23.9344 23.0655C23.4655 22.5967 22.8296 22.3333 22.1666 22.3333ZM12.0166 27.3333L26.3333 13.0166L23.9833 10.6666L9.6666 24.9833L12.0166 27.3333Z" fill="#CC2A06"/>
</svg>
