<svg width="53" height="52" viewBox="0 0 53 52" fill="none" xmlns="http://www.w3.org/2000/svg">
<circle cx="26.5" cy="26" r="26" fill="#F9F1E9"/>
<path d="M37.502 31.2287C35.7066 31.2287 33.9696 30.9398 32.3494 30.4198C32.0956 30.3346 31.8227 30.322 31.5619 30.3833C31.3012 30.4446 31.0632 30.5774 30.8752 30.7664L28.5835 33.612C24.4527 31.662 20.5846 27.9787 18.5265 23.7464L21.3728 21.3487C21.767 20.9442 21.8837 20.3809 21.7232 19.8753C21.1831 18.272 20.9058 16.5531 20.9058 14.7764C20.9058 13.9964 20.2489 13.3464 19.4607 13.3464H14.4103C13.6221 13.3464 12.6733 13.6931 12.6733 14.7764C12.6733 28.1953 23.9564 39.3464 37.502 39.3464C38.5383 39.3464 38.947 38.4364 38.947 37.642V32.6587C38.947 31.8787 38.2902 31.2287 37.502 31.2287Z" fill="#392A2A"/>
</svg>
