<svg width="53" height="52" viewBox="0 0 53 52" fill="none" xmlns="http://www.w3.org/2000/svg">
<circle cx="26.5" cy="26" r="26" fill="#F9F1E9"/>
<g clip-path="url(#clip0_2_274)">
<path fill-rule="evenodd" clip-rule="evenodd" d="M34.761 19.1085C34.2458 18.3748 32.8679 17.3434 30.6361 17.7883C29.3341 18.0469 28.5561 18.6839 28.0613 19.5245C27.5343 20.4201 27.2789 21.6378 27.2789 23.0548C27.2789 23.4379 27.1251 23.8053 26.8514 24.0761C26.5776 24.347 26.2064 24.4992 25.8192 24.4992C22.3657 24.4992 19.0786 23.4838 16.3125 20.7379C16.1037 21.852 16.0215 22.9857 16.0673 24.1179C16.1447 25.6865 16.5227 27.2595 17.4204 28.6072C18.3035 29.9318 19.7559 31.1451 22.1847 31.9078C22.4227 31.9825 22.6374 32.1164 22.8081 32.2966C22.9789 32.4768 23.1001 32.6974 23.1602 32.9373C23.2202 33.1771 23.2171 33.4282 23.1511 33.6665C23.0851 33.9047 22.9584 34.1223 22.7832 34.2983C22.0052 35.088 21.1234 35.7706 20.1616 36.3278C21.7089 36.4867 23.2006 36.4982 24.5844 36.374C27.3869 36.1227 29.6187 35.3297 31.0141 34.2073C33.9524 31.85 35.5244 28.3342 35.2325 22.4438C35.1829 21.476 36.1273 20.4317 36.5827 19.6387C35.8952 19.7658 35.2062 19.7427 34.761 19.1085ZM15.4601 16.2124C15.7244 16.182 15.992 16.2237 16.2341 16.3329C16.4762 16.4421 16.6835 16.6147 16.8336 16.8321C18.9881 19.9507 21.5746 21.2478 24.4457 21.5424C24.5858 20.3277 24.9172 19.1273 25.5404 18.07C26.4542 16.5187 27.9401 15.3775 30.0624 14.9558C32.9963 14.3722 35.2296 15.4238 36.5243 16.7108L39.14 16.2269C39.4137 16.1761 39.6964 16.2039 39.9547 16.307C40.2129 16.41 40.436 16.584 40.5976 16.8085C40.7592 17.0329 40.8525 17.2984 40.8666 17.5736C40.8807 17.8489 40.8149 18.1223 40.677 18.3618L38.1664 22.7269C38.3956 29.0261 36.6265 33.423 32.8547 36.452C30.855 38.0582 27.9912 38.9697 24.8486 39.2513C21.6811 39.5344 18.1006 39.1921 14.542 38.1637C14.2379 38.0759 13.971 37.8926 13.7814 37.6415C13.5918 37.3905 13.4899 37.0852 13.4911 36.7717C13.4922 36.4583 13.5964 36.1538 13.7878 35.904C13.9792 35.6543 14.2475 35.473 14.5522 35.3874C16.3417 34.8833 17.705 34.4485 18.9355 33.6873C17.1854 32.7687 15.8965 31.5669 14.9843 30.1975C13.7173 28.2938 13.2473 26.1704 13.1539 24.2565C13.0604 22.3427 13.3392 20.5689 13.6341 19.2905C13.8019 18.5611 13.9975 17.8302 14.2676 17.1311C14.3628 16.8847 14.5245 16.6687 14.735 16.5068C14.9454 16.3448 15.1953 16.243 15.4601 16.2124Z" fill="#392A2A"/>
</g>
<defs>
<clipPath id="clip0_2_274">
<rect width="35.0316" height="34.6667" fill="white" transform="translate(8.75439 9.01343)"/>
</clipPath>
</defs>
</svg>
